<svg xmlns="http://www.w3.org/2000/svg" fill="none" viewBox="0 0 180 180" height="180" width="180"><metadata><rdf:RDF xmlns:rdf="http://www.w3.org/1999/02/22-rdf-syntax-ns#" xmlns:dc="http://purl.org/dc/elements/1.1/"><rdf:Description><dc:creator>RealFaviconGenerator</dc:creator><dc:source>https://realfavicongenerator.net</dc:source></rdf:Description></rdf:RDF></metadata><rect fill="#10b981" rx="42" height="180" width="180"></rect><g transform="translate(42 46) scale(3.8)">
    
    <path stroke-linejoin="round" stroke-linecap="round" stroke-width="2.3" stroke="#ffffff" fill="none" d="M16 10a4 4 0 0 1-8 0"></path>
    
    
    <path stroke-linejoin="round" stroke-linecap="round" stroke-width="2.3" stroke="#ffffff" fill="none" d="M3.103 6.034h17.794"></path>
    
    
    <path stroke-linejoin="round" stroke-linecap="round" stroke-width="2.3" stroke="#ffffff" fill="none" d="M3.4 5.467a2 2 0 0 0-.4 1.2V20a2 2 0 0 0 2 2h14a2 2 0 0 0 2-2V6.667a2 2 0 0 0-.4-1.2l-2-2.667A2 2 0 0 0 17 2H7a2 2 0 0 0-1.6.8z"></path>
  </g></svg>